<svg xmlns="http://www.w3.org/2000/svg" xmlns:xlink="http://www.w3.org/1999/xlink" width="500" zoomAndPan="magnify" viewBox="0 0 375 374.999991" height="500" preserveAspectRatio="xMidYMid meet" version="1.0"><defs><clipPath id="7dcbd92f8e"><path d="M 94 113.226562 L 337.636719 113.226562 L 337.636719 266.644531 L 94 266.644531 Z M 94 113.226562 " clip-rule="nonzero"/></clipPath><clipPath id="9dbdeb56ee"><path d="M 135.171875 258.542969 L 212.875 258.542969 L 212.875 272.546875 L 135.171875 272.546875 Z M 135.171875 258.542969 " clip-rule="nonzero"/></clipPath><clipPath id="a05d9bd6bf"><path d="M 81.1875 135 L 97 135 L 97 152 L 81.1875 152 Z M 81.1875 135 " clip-rule="nonzero"/></clipPath></defs><path fill="#ffc500" d="M 238.261719 184.058594 C 238.125 184.015625 237.988281 183.96875 237.851562 183.925781 C 242.621094 169.835938 234.164062 155.773438 227.316406 142.957031 C 219.121094 127.617188 213.589844 111.5625 211.167969 94.972656 C 211.074219 94.316406 209.960938 94.179688 209.777344 94.847656 C 205.570312 110.058594 201.425781 126.332031 207.632812 141.792969 C 200.933594 138.175781 198.664062 131.183594 196.789062 124.988281 C 194.707031 118.089844 192.457031 111.246094 187.324219 105.386719 C 179.257812 96.179688 162.269531 91.050781 152.046875 100.160156 C 151.761719 100.414062 151.800781 100.976562 152.25 101.125 C 158.1875 103.09375 162.882812 107.085938 165.113281 112.160156 C 165.871094 113.878906 168.09375 119.164062 164.789062 119.6875 C 161.210938 120.253906 158.316406 116.402344 156.550781 114.421875 C 154.125 111.699219 150.902344 109.042969 146.617188 110.183594 C 142.84375 111.183594 140.441406 114.5625 139.902344 117.742188 C 139.015625 122.960938 142.140625 128.175781 141.0625 133.378906 C 140.496094 136.132812 138.796875 139.035156 135.359375 139.789062 C 132.195312 140.488281 128.890625 139.171875 125.675781 139.390625 C 118.203125 139.894531 113.269531 146.664062 115.117188 152.640625 C 111.933594 152.507812 109.128906 151.675781 106.417969 150.097656 C 105.894531 149.792969 105.34375 150.242188 105.328125 150.671875 C 105.035156 158.890625 102.171875 166.425781 97.246094 173.371094 C 93.589844 178.523438 90.070312 183.539062 90.125 189.8125 C 90.214844 200.132812 98.234375 209.515625 107.941406 215.523438 C 107.941406 215.53125 107.9375 215.535156 107.933594 215.542969 C 107.78125 216.136719 108.597656 216.441406 109.066406 216.191406 C 109.316406 216.335938 109.558594 216.488281 109.808594 216.628906 C 110.636719 217.09375 111.328125 215.964844 110.507812 215.503906 C 110.214844 215.339844 109.933594 215.15625 109.644531 214.984375 C 113.882812 201.894531 224.800781 180.808594 237.59375 185.136719 C 238.464844 185.433594 239.136719 184.347656 238.261719 184.058594 " fill-opacity="1" fill-rule="nonzero"/><g clip-path="url(#7dcbd92f8e)"><path fill="#263a29" d="M 297.019531 147.65625 C 296.976562 147.734375 296.796875 147.746094 296.679688 147.785156 C 296.632812 147.699219 296.585938 147.609375 296.539062 147.519531 C 296.726562 147.40625 296.914062 147.289062 297.097656 147.175781 C 297.078125 147.339844 297.089844 147.519531 297.019531 147.65625 Z M 291.96875 150.824219 C 294.269531 149.03125 294.269531 149.03125 295.464844 150.0625 C 294.304688 150.316406 293.347656 150.523438 291.96875 150.824219 Z M 293.9375 151.46875 C 293.898438 151.359375 293.820312 151.167969 293.828125 151.164062 C 294.09375 151.035156 294.363281 150.929688 294.636719 150.820312 C 294.679688 150.929688 294.722656 151.042969 294.765625 151.152344 C 294.488281 151.257812 294.214844 151.363281 293.9375 151.46875 Z M 282.253906 150.410156 C 282.183594 150.269531 282.113281 150.125 282.042969 149.980469 C 282.480469 149.847656 282.917969 149.710938 283.359375 149.574219 C 283.394531 149.648438 283.429688 149.726562 283.46875 149.800781 C 283.0625 150.003906 282.660156 150.207031 282.253906 150.410156 Z M 259.328125 180.984375 C 258.886719 179.996094 258.9375 177.671875 259.429688 176.347656 C 259.839844 177.765625 259.820312 178.714844 259.328125 180.984375 Z M 246.925781 203.179688 C 246.242188 205.242188 245.476562 207.316406 244.433594 209.214844 C 243.28125 211.316406 241.773438 213.226562 240.238281 215.125 C 241.058594 211.0625 241.394531 206.980469 242.660156 203.050781 C 244.191406 198.300781 245.542969 193.480469 246.738281 188.632812 C 247.222656 186.679688 247.085938 184.574219 247.234375 182.535156 C 247.28125 181.910156 247.34375 181.289062 247.410156 180.566406 C 249.671875 180.636719 250.03125 180.878906 250.269531 182.632812 C 250.773438 186.3125 250.617188 189.976562 250.261719 193.683594 C 249.929688 197.191406 247.984375 200 246.925781 203.179688 Z M 250.800781 181.257812 C 250.898438 181.757812 251 182.253906 251.097656 182.753906 C 250.988281 182.777344 250.878906 182.800781 250.769531 182.824219 C 250.640625 182.332031 250.511719 181.839844 250.382812 181.347656 C 250.523438 181.316406 250.660156 181.289062 250.800781 181.257812 Z M 200.132812 261.878906 C 197.730469 261.945312 195.371094 262.660156 192.964844 262.625 C 192.945312 262.476562 192.925781 262.328125 192.90625 262.175781 C 194.605469 261.761719 196.304688 261.367188 197.996094 260.929688 C 199.46875 260.546875 200.9375 260.128906 202.398438 259.699219 C 203.238281 259.453125 204.054688 259.257812 204.960938 259.683594 C 204.199219 260.441406 201.429688 261.84375 200.132812 261.878906 Z M 189.796875 263.199219 C 190.425781 262.671875 191.035156 262.058594 191.871094 263.007812 C 191.179688 263.070312 190.488281 263.136719 189.796875 263.199219 Z M 185.777344 263.667969 C 185.78125 263.609375 185.78125 263.554688 185.785156 263.496094 C 186.304688 263.503906 186.828125 263.511719 187.351562 263.519531 C 187.355469 263.617188 187.359375 263.710938 187.363281 263.808594 C 186.835938 263.761719 186.304688 263.714844 185.777344 263.667969 Z M 172.964844 215.183594 C 172.941406 215.101562 172.894531 214.945312 172.902344 214.945312 C 173.164062 214.851562 173.429688 214.773438 173.691406 214.691406 C 173.730469 214.765625 173.769531 214.839844 173.804688 214.914062 C 173.523438 215.003906 173.246094 215.09375 172.964844 215.183594 Z M 147.234375 207.433594 C 147.191406 207.238281 147.152344 207.046875 147.109375 206.851562 C 148.414062 206.585938 149.722656 206.316406 151.027344 206.046875 C 151.058594 206.207031 151.09375 206.367188 151.128906 206.53125 C 149.832031 206.832031 148.53125 207.132812 147.234375 207.433594 Z M 148.613281 224.757812 C 148.601562 224.671875 148.589844 224.582031 148.574219 224.496094 C 148.855469 224.421875 149.140625 224.347656 149.421875 224.273438 C 149.445312 224.425781 149.46875 224.574219 149.492188 224.726562 C 149.199219 224.734375 148.910156 224.746094 148.613281 224.757812 Z M 145.554688 217.75 C 146.25 216.238281 146.257812 216.238281 147.667969 217.238281 C 146.988281 217.402344 146.375 217.550781 145.554688 217.75 Z M 135.714844 218.613281 C 137.5 218.644531 138.890625 219.804688 140.507812 220.363281 C 138.675781 220.457031 137.167969 219.613281 135.714844 218.613281 Z M 134.480469 213.207031 C 135.273438 213.125 136.0625 213.042969 136.851562 212.960938 C 136.871094 213.089844 136.886719 213.222656 136.902344 213.355469 C 136.09375 213.464844 135.289062 213.574219 134.484375 213.683594 C 134.484375 213.523438 134.480469 213.363281 134.480469 213.207031 Z M 108.308594 213.191406 C 110.730469 213.3125 110.921875 213.453125 111.566406 215.375 C 111.742188 215.890625 111.949219 216.398438 112.140625 216.910156 C 110.253906 216.210938 109.390625 214.6875 108.308594 213.191406 Z M 104.476562 209.324219 C 105.445312 209.011719 106.230469 208.757812 107.164062 208.457031 C 107.21875 209.804688 107.265625 210.902344 107.320312 212.246094 C 106.34375 211.242188 105.515625 210.390625 104.476562 209.324219 Z M 335.265625 127.792969 C 335.113281 127.953125 334.578125 127.753906 333.929688 127.699219 C 332.699219 128.820312 331.199219 130.183594 329.714844 131.5625 C 329.597656 131.671875 329.507812 131.921875 329.546875 132.074219 C 329.777344 133 328.875 133.117188 328.519531 133.101562 C 326.980469 133.03125 326.035156 133.929688 325.039062 134.855469 C 324.578125 135.285156 324.011719 135.621094 323.449219 135.917969 C 321.179688 137.105469 318.890625 138.261719 316.609375 139.441406 C 316.386719 139.554688 316.011719 139.707031 316.003906 139.863281 C 315.945312 140.8125 315.09375 140.578125 314.605469 140.816406 C 313.757812 141.234375 312.78125 141.40625 311.964844 141.867188 C 308.710938 143.699219 305.449219 145.519531 302.003906 146.972656 C 301.449219 147.210938 300.8125 147.257812 300.210938 147.390625 C 301.089844 146.363281 301.980469 145.390625 303.078125 144.820312 C 307.472656 142.535156 311.898438 140.289062 316.382812 138.1875 C 320.703125 136.160156 324.476562 133.476562 327.589844 129.859375 C 327.914062 129.480469 328.328125 129.148438 328.757812 128.890625 C 331.019531 127.539062 332.578125 125.558594 333.980469 123.347656 C 333.613281 122.785156 333.332031 122.285156 332.988281 121.832031 C 332.003906 120.539062 330.960938 119.289062 330.003906 117.976562 C 329.210938 116.894531 328.523438 115.734375 327.746094 114.644531 C 326.871094 113.417969 325.132812 113.027344 324.050781 113.910156 C 322.113281 115.488281 320.328125 117.25 318.347656 118.769531 C 317.152344 119.6875 315.789062 120.574219 314.363281 120.960938 C 313.214844 121.269531 312.1875 121.679688 311.226562 122.304688 C 308.746094 123.925781 306.296875 125.589844 304.519531 128.046875 C 304.152344 128.558594 303.625 128.984375 303.105469 129.351562 C 300.6875 131.042969 298.3125 132.8125 295.789062 134.339844 C 293.433594 135.765625 290.914062 136.9375 288.457031 138.195312 C 287.699219 138.582031 286.980469 138.910156 286.84375 139.925781 C 286.796875 140.25 286.34375 140.660156 285.992188 140.78125 C 280.523438 142.6875 275.550781 145.636719 270.335938 148.078125 C 268.4375 148.964844 266.570312 149.917969 264.660156 150.78125 C 262.65625 151.683594 261.207031 153.179688 260.753906 155.257812 C 260.421875 156.78125 259.859375 158.011719 258.800781 159.101562 C 258.363281 159.550781 258.015625 160.109375 257.710938 160.664062 C 256.351562 163.121094 254.226562 164.722656 251.550781 165.128906 C 248.109375 165.65625 244.851562 166.976562 241.359375 167.207031 C 239.515625 167.328125 237.691406 167.679688 235.855469 167.902344 C 234.964844 168.007812 234.046875 167.949219 233.183594 168.148438 C 231.3125 168.574219 229.476562 169.15625 227.605469 169.609375 C 224.550781 170.347656 221.496094 171.105469 218.410156 171.699219 C 217.65625 171.847656 217.679688 172.230469 217.339844 172.847656 C 219.097656 172.289062 220.277344 173.703125 221.796875 173.480469 C 217.4375 175.03125 213.953125 175.535156 212.222656 174.675781 C 212.753906 174.480469 213.09375 174.355469 213.589844 174.167969 C 212.195312 173.429688 210.921875 173.546875 209.691406 173.777344 C 203.957031 174.855469 198.210938 175.886719 192.507812 177.105469 C 186.613281 178.367188 180.710938 179.648438 175.089844 181.914062 C 174.800781 182.03125 174.464844 182.027344 174.148438 182.054688 C 173.21875 182.136719 172.253906 182.082031 171.355469 182.296875 C 169.445312 182.753906 167.550781 183.242188 165.691406 183.96875 C 163.582031 184.792969 161.257812 185.050781 159.03125 185.570312 C 155.097656 186.480469 151.15625 187.359375 147.238281 188.332031 C 143.25 189.320312 139.304688 190.46875 135.3125 191.4375 C 130.691406 192.5625 126.027344 193.507812 121.410156 194.644531 C 118.730469 195.304688 116.089844 196.144531 113.457031 196.988281 C 111.871094 197.5 110.375 198.320312 108.773438 198.75 C 105.640625 199.585938 102.457031 200.238281 99.300781 200.976562 C 97.402344 201.417969 97.273438 201.652344 97.957031 203.839844 C 95.894531 203.742188 95.296875 205.5 94.21875 206.738281 C 94.296875 208.039062 94.472656 209.289062 96.070312 209.996094 C 95.769531 211.148438 95.480469 212.261719 95.136719 213.582031 C 95.636719 213.316406 95.878906 213.1875 96.167969 213.027344 C 96.503906 213.4375 97.035156 213.796875 97.105469 214.230469 C 97.261719 215.191406 97.769531 215.796875 98.472656 216.382812 C 98.902344 216.742188 99.199219 217.269531 99.515625 217.75 C 100.832031 219.753906 102.148438 221.757812 103.441406 223.777344 C 104.492188 225.421875 106.425781 226.574219 106.304688 228.875 C 106.300781 228.921875 106.375 229.015625 106.417969 229.019531 C 107.519531 229.0625 107.089844 230.402344 107.894531 230.71875 C 108.566406 230.183594 109.101562 230.492188 109.652344 231.011719 C 110.769531 232.054688 111.941406 233.035156 113.054688 234.085938 C 113.609375 234.613281 114.167969 235.183594 114.550781 235.835938 C 114.757812 236.1875 114.605469 236.757812 114.617188 237.226562 C 114.492188 237.296875 114.367188 237.367188 114.242188 237.4375 C 116.167969 238.726562 118.09375 240.015625 120.019531 241.304688 C 119.863281 242.78125 119.867188 242.78125 121.734375 243.316406 C 121.785156 243.074219 121.835938 242.839844 121.882812 242.601562 C 121.273438 242.175781 120.667969 241.746094 120.058594 241.316406 C 119.621094 240.734375 119.179688 240.148438 118.742188 239.566406 C 118.789062 239.503906 118.832031 239.441406 118.878906 239.378906 C 119.230469 239.574219 119.617188 239.730469 119.925781 239.980469 C 120.960938 240.816406 121.875 241.800781 123.191406 242.257812 C 123.445312 242.34375 124.148438 242.722656 123.332031 243.148438 C 124.109375 243.511719 124.890625 243.871094 125.878906 244.332031 C 125.335938 244.65625 124.953125 244.882812 124.410156 245.207031 C 126.007812 246.964844 127.695312 248.332031 129.8125 249.136719 C 129.816406 248.910156 129.820312 248.675781 129.828125 248.320312 C 131.578125 248.945312 133.128906 249.722656 134.316406 251.113281 C 133.09375 250.59375 131.875 250.074219 130.652344 249.550781 C 130.429688 249.457031 130.207031 249.359375 129.988281 249.261719 C 131.332031 250.257812 132.652344 251.296875 134.050781 252.210938 C 134.335938 252.394531 134.949219 252.074219 135.410156 251.988281 C 137.324219 253.46875 139.46875 254.617188 141.5 255.90625 C 143.933594 257.457031 146.796875 258.339844 149.488281 259.488281 C 149.964844 259.691406 150.570312 259.679688 150.714844 260.527344 C 149.671875 260.277344 148.765625 260.03125 147.847656 259.835938 C 145.34375 259.304688 142.84375 258.722656 140.320312 258.296875 C 138.242188 257.945312 136.226562 257.515625 134.5 256.230469 C 134.660156 256.542969 134.742188 256.996094 134.996094 257.136719 C 136.714844 258.101562 138.445312 259.058594 140.523438 259 C 140.957031 258.988281 141.410156 259.140625 141.832031 259.28125 C 143.632812 259.878906 145.40625 260.574219 147.230469 261.09375 C 148.796875 261.539062 150.507812 261.585938 152.003906 262.183594 C 154.148438 263.039062 156.171875 262.980469 158.253906 262.1875 C 154.890625 262.433594 153.027344 262.042969 151.683594 260.558594 C 154.007812 261.792969 156.46875 260.722656 158.394531 262.207031 C 160.582031 262.664062 162.75 263.234375 164.957031 263.546875 C 168.429688 264.035156 171.921875 264.371094 175.414062 264.703125 C 175.863281 264.746094 176.398438 264.480469 176.816406 264.226562 C 177.761719 263.648438 178.429688 263.996094 178.996094 264.707031 C 179.710938 264.582031 180.738281 264.128906 181.015625 264.410156 C 181.957031 265.363281 183.050781 264.992188 184.085938 265.148438 C 184.339844 265.191406 184.578125 265.3125 185 265.453125 C 183.625 266.53125 182.046875 265.144531 180.683594 266.429688 C 184.445312 266.25 187.953125 266.386719 191.457031 265.554688 C 191.339844 265.199219 191.257812 264.941406 191.125 264.523438 C 191.777344 264.371094 192.386719 264.222656 192.996094 264.085938 C 196.183594 263.378906 199.363281 262.640625 202.554688 261.976562 C 204.769531 261.515625 206.695312 260.4375 208.617188 259.339844 C 210.328125 258.363281 212.363281 257.960938 213.78125 256.445312 C 214.019531 256.1875 214.460938 256.09375 214.828125 255.988281 C 217.355469 255.265625 219.378906 253.742188 221.339844 252.070312 C 222.105469 251.417969 222.925781 250.527344 224.160156 251.230469 C 224.21875 251.265625 224.367188 251.140625 224.488281 251.082031 C 224.429688 250.796875 224.371094 250.507812 224.324219 250.257812 C 225.792969 249.140625 227.65625 248.605469 228.839844 246.632812 C 227.445312 247.441406 226.335938 248.085938 225.144531 248.777344 C 225.125 248.414062 225.066406 248.234375 225.117188 248.191406 C 226.523438 247.105469 227.832031 245.820312 229.390625 245.023438 C 230.777344 244.3125 231.972656 243.429688 233.140625 242.457031 C 234.617188 241.226562 236.164062 240.070312 237.527344 238.726562 C 239.53125 236.75 241.671875 234.824219 243.234375 232.523438 C 244.507812 230.65625 245.910156 228.988281 247.445312 227.367188 C 248.199219 226.570312 249.324219 225.652344 248.390625 224.234375 C 248.300781 224.101562 248.28125 223.859375 248.339844 223.710938 C 248.828125 222.398438 249.273438 221.066406 249.859375 219.800781 C 250.628906 218.148438 251.613281 216.585938 251.453125 214.640625 C 251.425781 214.292969 251.628906 213.65625 251.828125 213.613281 C 252.671875 213.421875 252.578125 212.640625 252.933594 212.15625 C 253.570312 211.285156 254.289062 210.460938 254.855469 209.546875 C 255.960938 207.753906 257.214844 205.996094 257.96875 204.058594 C 258.574219 202.5 259.011719 200.84375 259.160156 199.070312 C 259.476562 195.316406 260.328125 191.605469 260.78125 187.859375 C 260.929688 186.636719 260.625 185.328125 260.34375 184.101562 C 260.109375 183.109375 260.101562 182.253906 260.59375 181.335938 C 260.878906 180.8125 260.96875 180.167969 261.070312 179.5625 C 261.222656 178.679688 261.214844 177.765625 261.433594 176.90625 C 262.386719 173.136719 263.394531 169.382812 264.40625 165.554688 C 266.183594 165.523438 267.429688 164.5 268.714844 163.527344 C 269.289062 163.089844 269.882812 162.429688 270.515625 162.371094 C 272.394531 162.203125 273.9375 161.382812 275.410156 160.332031 C 275.480469 160.28125 275.472656 160.117188 275.519531 159.9375 C 275.160156 159.636719 274.777344 159.320312 274.394531 159 C 276.292969 156.828125 276.542969 156.699219 277.890625 157.238281 C 277.476562 157.484375 277.085938 157.714844 276.644531 157.976562 C 278.03125 158.410156 279.234375 158.476562 280.335938 157.523438 C 280.597656 157.292969 281.0625 157.292969 281.4375 157.203125 C 283.992188 156.605469 286.542969 156.007812 289.082031 155.417969 C 289.238281 154.742188 289.363281 154.191406 289.527344 153.488281 C 289.9375 153.628906 290.324219 153.808594 290.730469 153.894531 C 291.21875 154 292.140625 154.136719 292.160156 154.0625 C 292.492188 152.875 293.464844 153.550781 294.078125 153.417969 C 295.019531 153.214844 295.976562 153.207031 296.761719 152.503906 C 297.078125 152.222656 297.550781 152.003906 297.972656 151.96875 C 299.773438 151.8125 301.1875 150.746094 302.765625 150.070312 C 304.824219 149.195312 306.765625 148.101562 308.558594 146.808594 C 309.90625 145.84375 311.453125 145.503906 312.882812 144.835938 C 314.960938 143.871094 316.933594 142.671875 318.910156 141.511719 C 319.957031 140.898438 320.925781 140.152344 321.929688 139.464844 C 322.441406 139.113281 322.9375 138.726562 323.46875 138.394531 C 324.816406 137.558594 326.273438 136.859375 327.519531 135.890625 C 329.585938 134.289062 331.519531 132.515625 333.515625 130.820312 C 333.808594 130.574219 334.140625 130.375 334.453125 130.148438 C 335.511719 129.382812 336.574219 128.617188 337.636719 127.851562 C 336.746094 127.546875 336.007812 127 335.265625 127.792969 " fill-opacity="1" fill-rule="nonzero"/></g><path fill="#263a29" d="M 129.8125 249.136719 C 129.8125 249.152344 129.808594 249.167969 129.808594 249.183594 L 129.835938 249.148438 C 129.828125 249.144531 129.820312 249.140625 129.8125 249.136719 " fill-opacity="1" fill-rule="nonzero"/><path fill="#263a29" d="M 109.035156 194.96875 C 109.058594 195.058594 109.078125 195.148438 109.097656 195.242188 C 108.832031 195.316406 108.566406 195.386719 108.300781 195.464844 C 108.269531 195.34375 108.242188 195.222656 108.210938 195.105469 C 108.488281 195.058594 108.761719 195.011719 109.035156 194.96875 Z M 198.558594 165.808594 C 198.078125 165.867188 197.59375 165.921875 197.113281 165.976562 C 197.109375 165.878906 197.109375 165.777344 197.105469 165.675781 C 197.589844 165.71875 198.074219 165.761719 198.558594 165.808594 Z M 207.617188 163.792969 C 207.375 164.097656 207.160156 164.578125 206.875 164.621094 C 204.1875 165.054688 201.484375 165.40625 198.785156 165.78125 C 200.875 164.449219 203.21875 163.925781 205.628906 163.671875 C 206.28125 163.605469 206.953125 163.742188 207.617188 163.792969 Z M 98.996094 197.578125 C 99.878906 198.066406 100.746094 198.542969 101.65625 199.046875 C 103.144531 198.785156 104.625 198.386719 106.214844 198.25 C 108.363281 198.066406 110.488281 197.089844 112.21875 195.582031 C 112.078125 195.398438 111.9375 195.214844 111.5625 194.714844 C 112.671875 194.867188 113.480469 195.160156 114.222656 195.035156 C 114.996094 194.898438 115.679688 194.320312 116.433594 194.015625 C 117.613281 193.539062 118.882812 193.246094 119.996094 192.660156 C 121.136719 192.054688 122.546875 192.09375 123.519531 191.417969 C 127.273438 188.8125 131.722656 188.722656 135.914062 187.71875 C 137.902344 187.242188 139.933594 186.929688 141.933594 186.507812 C 142.191406 186.457031 142.402344 186.183594 142.632812 186.015625 C 142.589844 185.910156 142.550781 185.808594 142.507812 185.703125 C 141.90625 185.820312 141.304688 185.933594 140.617188 186.066406 C 141.039062 185.011719 141.742188 184.570312 142.675781 184.378906 C 143.238281 184.261719 143.957031 184.195312 144.289062 183.828125 C 145.046875 182.976562 146.03125 182.726562 147.015625 182.535156 C 150.605469 181.847656 154.210938 181.234375 157.8125 180.609375 C 159.890625 180.246094 161.984375 179.96875 164.046875 179.535156 C 165.421875 179.246094 166.746094 178.742188 168.101562 178.34375 C 171.546875 177.332031 175.066406 176.519531 178.421875 175.269531 C 182.285156 173.828125 186.210938 172.65625 190.289062 172.304688 C 194.339844 171.949219 198.097656 170.550781 201.988281 169.625 C 203.417969 169.285156 204.835938 168.890625 206.269531 168.570312 C 208.117188 168.152344 210.015625 167.882812 211.652344 166.667969 C 210.414062 166.363281 209.132812 167.449219 207.820312 166.210938 C 209.160156 165.71875 210.316406 165.289062 211.46875 164.863281 C 210.613281 164.417969 209.796875 164.390625 209 164.257812 C 208.558594 164.183594 208.144531 163.957031 207.71875 163.785156 C 208.898438 163.367188 210.082031 162.949219 211.265625 162.53125 C 211.316406 161.980469 211.363281 161.429688 211.421875 160.78125 C 210.996094 160.847656 210.75 160.867188 210.507812 160.925781 C 206.371094 161.863281 202.238281 162.8125 198.101562 163.742188 C 192.71875 164.953125 187.324219 166.097656 181.957031 167.378906 C 179.71875 167.910156 177.480469 168.554688 175.355469 169.425781 C 171.5 171.007812 167.746094 172.847656 163.441406 172.84375 C 162.933594 172.839844 162.414062 172.933594 161.921875 173.0625 C 155.949219 174.597656 149.96875 176.117188 144.007812 177.714844 C 142.152344 178.210938 140.375 179 138.523438 179.515625 C 134.945312 180.511719 131.328125 181.316406 127.835938 182.671875 C 123.648438 184.300781 119.328125 185.605469 115.015625 186.878906 C 109.691406 188.449219 104.652344 190.722656 99.550781 192.84375 C 98.707031 193.195312 97.996094 193.863281 97.261719 194.363281 C 98.105469 194.917969 98.804688 195.378906 99.519531 195.847656 C 99.304688 196.554688 99.144531 197.089844 98.996094 197.578125 " fill-opacity="1" fill-rule="nonzero"/><g clip-path="url(#9dbdeb56ee)"><path fill="#263a29" d="M 156.457031 267.910156 C 156.453125 267.964844 156.453125 268.019531 156.449219 268.074219 C 155.792969 268.019531 155.136719 267.960938 154.480469 267.902344 C 154.484375 267.847656 154.488281 267.792969 154.492188 267.738281 C 155.148438 267.792969 155.800781 267.851562 156.457031 267.910156 Z M 159.117188 268.5625 C 159.117188 268.683594 159.121094 268.800781 159.121094 268.921875 C 158.636719 268.878906 158.15625 268.835938 157.675781 268.792969 C 157.671875 268.714844 157.667969 268.632812 157.664062 268.554688 C 158.148438 268.554688 158.632812 268.558594 159.117188 268.5625 Z M 163.875 270.210938 C 164.441406 270.363281 165.007812 270.511719 165.578125 270.664062 C 165.558594 270.734375 165.542969 270.808594 165.523438 270.882812 C 164.945312 270.804688 164.371094 270.726562 163.792969 270.648438 C 163.820312 270.503906 163.847656 270.359375 163.875 270.210938 Z M 136.855469 260.375 C 137.316406 260.605469 138.015625 261.042969 138.019531 261.390625 C 138.027344 262.304688 138.683594 262.4375 139.214844 262.699219 C 140.363281 263.261719 141.578125 263.691406 142.714844 264.277344 C 144.8125 265.359375 146.867188 266.527344 148.953125 267.628906 C 149.519531 267.929688 150.121094 268.273438 150.734375 268.34375 C 153.78125 268.6875 156.613281 270.144531 159.75 270.046875 C 160.550781 270.023438 161.429688 270.167969 162.15625 270.496094 C 165.257812 271.898438 168.554688 271.507812 172.042969 271.871094 C 171.570312 271.375 171.328125 271.121094 170.917969 270.691406 C 171.945312 270.863281 173.003906 270.417969 173.109375 271.835938 C 173.117188 271.925781 173.433594 272.035156 173.613281 272.0625 C 174.679688 272.230469 175.871094 272.757812 176.785156 272.453125 C 179.789062 271.457031 183.078125 272.859375 185.953125 271.222656 C 186.003906 271.191406 186.078125 271.203125 186.144531 271.203125 C 188.726562 271.167969 191.324219 271.371094 193.84375 270.488281 C 194.730469 270.175781 195.691406 270.066406 196.621094 269.886719 C 198.550781 269.511719 200.355469 268.734375 202.335938 268.394531 C 204.136719 268.082031 206.011719 267.570312 207.820312 267.03125 C 209.023438 266.675781 210.117188 265.96875 211.257812 265.410156 C 211.554688 265.265625 211.835938 265.09375 212.121094 264.9375 C 212.09375 264.835938 212.066406 264.738281 212.042969 264.636719 C 211.632812 264.601562 211.226562 264.566406 210.613281 264.511719 C 211.410156 264.101562 211.953125 263.820312 212.789062 263.394531 C 211.058594 263.414062 209.695312 263.324219 208.378906 264.125 C 207.800781 264.480469 206.917969 264.382812 206.167969 264.382812 C 205.996094 264.382812 205.863281 263.792969 205.644531 263.742188 C 204.988281 263.585938 204.300781 263.5625 203.625 263.488281 C 202.917969 263.664062 202.214844 263.84375 201.511719 264.019531 C 200.851562 264.257812 200.183594 264.46875 199.542969 264.746094 C 198.964844 264.996094 198.410156 265.304688 197.867188 265.625 C 197.757812 265.691406 197.75 265.929688 197.65625 266.199219 C 198.21875 266.285156 198.699219 266.359375 199.453125 266.476562 C 198.914062 266.828125 198.378906 266.980469 198.238281 267.304688 C 197.714844 268.511719 196.65625 268.460938 195.660156 268.53125 C 194.316406 268.628906 192.96875 268.644531 191.625 268.691406 C 191.625 268.691406 191.679688 268.652344 191.675781 268.65625 C 189.660156 268.976562 187.644531 269.269531 185.640625 269.628906 C 184.894531 269.761719 183.941406 270.59375 184.019531 268.910156 C 184.027344 268.8125 183.742188 268.628906 183.578125 268.609375 C 182.011719 268.425781 180.433594 268.242188 179.378906 269.40625 C 179.085938 269.117188 178.824219 268.632812 178.476562 268.5625 C 177.800781 268.421875 177.066406 268.550781 176.367188 268.492188 C 173.507812 268.25 170.648438 267.984375 167.789062 267.710938 C 166.710938 267.605469 165.597656 267.585938 164.570312 267.28125 C 163.582031 266.988281 162.824219 266.917969 161.777344 267.34375 C 160.996094 267.664062 159.832031 267.0625 158.839844 266.851562 C 158.28125 266.730469 157.699219 266.640625 157.1875 266.40625 C 156.703125 266.183594 156.34375 265.644531 155.851562 265.5 C 151.914062 264.347656 147.957031 263.246094 144.003906 262.144531 C 143.078125 261.886719 142.136719 261.6875 141.203125 261.460938 C 141.449219 261.632812 141.699219 261.808594 141.964844 261.988281 C 140.652344 262.042969 140.625 262.023438 140.371094 261.046875 C 138.667969 260.222656 136.964844 259.394531 135.257812 258.570312 C 135.285156 259.605469 136.046875 259.976562 136.855469 260.375 " fill-opacity="1" fill-rule="nonzero"/></g><path fill="#263a29" d="M 233.15625 248.25 C 232.09375 249.160156 231.132812 250.25 229.9375 250.941406 C 228.253906 251.917969 226.722656 253.019531 225.421875 254.464844 C 225.167969 254.742188 224.863281 255.027344 224.523438 255.164062 C 222.878906 255.824219 221.171875 256.34375 219.5625 257.082031 C 217.28125 258.128906 214.921875 259.085938 212.847656 261.214844 C 214.035156 260.933594 214.859375 260.742188 215.683594 260.546875 C 215.714844 260.644531 215.746094 260.738281 215.78125 260.835938 C 215.183594 261.152344 214.585938 261.46875 214.074219 261.742188 C 214.433594 262.753906 215.0625 263.078125 215.992188 262.660156 C 216.976562 262.222656 217.9375 261.71875 218.949219 261.359375 C 220.804688 260.707031 222.085938 259.683594 221.855469 257.492188 C 221.847656 257.441406 221.917969 257.382812 222.070312 257.140625 C 224.808594 257.3125 226.742188 255.671875 228.667969 254.125 C 229.542969 253.425781 230.105469 252.347656 230.953125 251.605469 C 232.121094 250.574219 232.964844 249.191406 234.464844 248.496094 C 235.003906 248.242188 235.347656 247.5625 235.925781 246.914062 C 234.546875 246.914062 233.878906 247.632812 233.15625 248.25 " fill-opacity="1" fill-rule="nonzero"/><path fill="#263a29" d="M 126.660156 253.378906 C 125.339844 252.367188 123.964844 251.269531 122.546875 250.226562 C 121.839844 249.707031 121.042969 249.40625 120.214844 250 C 119.980469 249.636719 119.855469 249.222656 119.574219 249.042969 C 117.832031 247.910156 116.429688 246.433594 115.113281 244.851562 C 114.089844 243.621094 113.039062 242.410156 111.941406 241.25 C 111.664062 240.957031 111.203125 240.839844 110.800781 240.667969 C 111.59375 241.757812 112.425781 242.820312 113.164062 243.945312 C 113.464844 244.402344 113.410156 245.125 113.757812 245.511719 C 115.320312 247.25 116.964844 248.917969 118.589844 250.601562 C 120.101562 252.164062 121.570312 253.773438 123.164062 255.25 C 123.804688 255.84375 124.730469 256.132812 125.527344 256.5625 C 125.644531 256.4375 125.761719 256.3125 125.878906 256.1875 C 125.644531 255.800781 125.472656 255.335938 125.148438 255.039062 C 124.683594 254.609375 124.050781 254.355469 123.589844 253.917969 C 123.289062 253.628906 123.164062 253.144531 122.851562 252.539062 C 124.480469 252.484375 125.347656 254.433594 126.660156 253.378906 " fill-opacity="1" fill-rule="nonzero"/><path fill="#263a29" d="M 110.695312 240.601562 C 110.707031 240.585938 110.730469 240.566406 110.726562 240.570312 C 110.714844 240.566406 110.703125 240.5625 110.6875 240.5625 C 110.683594 240.582031 110.683594 240.597656 110.679688 240.613281 C 110.71875 240.632812 110.757812 240.648438 110.800781 240.667969 C 110.777344 240.632812 110.75 240.601562 110.726562 240.570312 C 110.730469 240.566406 110.710938 240.585938 110.695312 240.601562 " fill-opacity="1" fill-rule="nonzero"/><path fill="#263a29" d="M 192.972656 267.710938 C 190.59375 266.292969 188.222656 267.238281 185.417969 267.703125 C 186.492188 268.042969 187.113281 268.351562 187.761719 268.417969 C 188.5 268.496094 189.261719 268.300781 190.007812 268.328125 C 190.566406 268.351562 191.117188 268.542969 191.675781 268.65625 C 191.679688 268.652344 191.625 268.691406 191.628906 268.691406 C 192.078125 268.363281 192.527344 268.039062 192.972656 267.710938 " fill-opacity="1" fill-rule="nonzero"/><path fill="#263a29" d="M 109.261719 238.371094 C 107.558594 237.65625 106.664062 236.109375 105.277344 235.101562 C 105.023438 234.914062 104.773438 234.71875 104.523438 234.527344 C 104.480469 234.582031 104.4375 234.632812 104.394531 234.6875 C 104.851562 235.363281 105.3125 236.035156 105.769531 236.714844 C 105.171875 236.308594 104.574219 235.902344 103.789062 235.371094 C 105.117188 237.894531 108.976562 241.78125 110.566406 242.300781 C 109.0625 240.515625 107.558594 238.730469 106.054688 236.945312 C 106.988281 237.785156 107.988281 238.566406 108.835938 239.484375 C 109.375 240.066406 109.898438 240.503906 110.6875 240.5625 C 110.925781 239.378906 109.953125 238.664062 109.261719 238.371094 " fill-opacity="1" fill-rule="nonzero"/><path fill="#263a29" d="M 134.496094 256.222656 C 134.492188 256.222656 134.492188 256.226562 134.488281 256.230469 C 134.492188 256.230469 134.492188 256.230469 134.492188 256.230469 L 134.496094 256.230469 C 134.496094 256.230469 134.5 256.230469 134.5 256.230469 C 134.5 256.230469 134.496094 256.226562 134.496094 256.222656 " fill-opacity="1" fill-rule="nonzero"/><path fill="#263a29" d="M 131.203125 256.066406 C 131.683594 257.769531 132.96875 258.558594 135.179688 258.511719 C 134.660156 258.007812 134.136719 257.503906 133.589844 256.976562 C 133.929688 256.691406 134.210938 256.460938 134.488281 256.230469 C 133.390625 256.1875 132.335938 255.339844 131.203125 256.066406 " fill-opacity="1" fill-rule="nonzero"/><path fill="#263a29" d="M 135.21875 258.550781 C 135.230469 258.558594 135.246094 258.5625 135.257812 258.570312 C 135.257812 258.550781 135.253906 258.53125 135.253906 258.511719 C 135.226562 258.511719 135.203125 258.511719 135.179688 258.511719 C 135.191406 258.523438 135.203125 258.539062 135.214844 258.550781 L 135.21875 258.550781 " fill-opacity="1" fill-rule="nonzero"/><path fill="#263a29" d="M 145.910156 185.339844 C 148.097656 185.589844 152.09375 184.886719 154.394531 183.917969 C 153.277344 183.976562 152.390625 183.96875 151.523438 184.089844 C 150.574219 184.21875 149.636719 184.453125 148.699219 184.660156 C 147.898438 184.839844 147.105469 185.046875 145.910156 185.339844 " fill-opacity="1" fill-rule="nonzero"/><path fill="#263a29" d="M 199.730469 263.894531 C 197.347656 263.839844 195.023438 264.035156 192.992188 265.605469 C 195.238281 265.035156 197.484375 264.464844 199.730469 263.894531 " fill-opacity="1" fill-rule="nonzero"/><path fill="#263a29" d="M 199.730469 263.894531 C 199.8125 263.898438 199.890625 263.898438 199.972656 263.902344 L 199.925781 263.847656 C 199.859375 263.863281 199.796875 263.878906 199.730469 263.894531 " fill-opacity="1" fill-rule="nonzero"/><path fill="#263a29" d="M 129.808594 249.183594 C 129.867188 249.207031 129.925781 249.234375 129.988281 249.261719 C 129.9375 249.222656 129.886719 249.183594 129.835938 249.148438 L 129.808594 249.183594 " fill-opacity="1" fill-rule="nonzero"/><path fill="#263a29" d="M 232.617188 245.960938 C 234 244.789062 235.0625 243.867188 235.589844 242.34375 C 233.824219 243.074219 232.992188 244.019531 232.617188 245.960938 " fill-opacity="1" fill-rule="nonzero"/><path fill="#263a29" d="M 199.972656 263.902344 C 199.996094 263.886719 200.023438 263.875 200.050781 263.859375 C 200.007812 263.855469 199.96875 263.851562 199.925781 263.847656 C 199.925781 263.847656 199.972656 263.902344 199.972656 263.902344 " fill-opacity="1" fill-rule="nonzero"/><path fill="#263a29" d="M 204.457031 263.054688 C 204.386719 262.933594 204.3125 262.808594 204.238281 262.6875 C 202.820312 262.992188 201.363281 263.125 200.050781 263.859375 C 200.539062 263.914062 201.027344 263.964844 201.511719 264.019531 C 202.214844 263.84375 202.917969 263.664062 203.625 263.488281 C 203.902344 263.34375 204.179688 263.199219 204.457031 263.054688 " fill-opacity="1" fill-rule="nonzero"/><path fill="#263a29" d="M 101.742188 228.4375 C 101.894531 229.667969 102.683594 230.367188 103.808594 230.800781 C 103.492188 230.058594 103.097656 229.363281 102.597656 228.757812 C 102.429688 228.554688 102.050781 228.523438 101.742188 228.4375 " fill-opacity="1" fill-rule="nonzero"/><path fill="#263a29" d="M 194.480469 266.773438 C 193.960938 266.945312 193.109375 266.402344 192.96875 267.425781 C 192.957031 267.511719 193.007812 267.605469 193.050781 267.699219 C 193.8125 267.664062 194.574219 267.632812 195.214844 267.601562 C 195.433594 266.675781 194.964844 266.617188 194.480469 266.773438 " fill-opacity="1" fill-rule="nonzero"/><path fill="#263a29" d="M 193.050781 267.699219 C 193.03125 267.699219 193.007812 267.703125 192.988281 267.703125 C 192.984375 267.707031 192.980469 267.710938 192.972656 267.710938 C 193.011719 267.734375 193.046875 267.753906 193.085938 267.777344 C 193.074219 267.75 193.066406 267.726562 193.050781 267.699219 " fill-opacity="1" fill-rule="nonzero"/><path fill="#263a29" d="M 210.195312 262.300781 C 209.253906 262.390625 208.3125 262.476562 207.078125 262.59375 C 208.476562 263.957031 209.246094 262.355469 210.195312 262.300781 " fill-opacity="1" fill-rule="nonzero"/><path fill="#263a29" d="M 194.429688 271.007812 C 194.429688 271.175781 194.433594 271.34375 194.433594 271.511719 C 195.03125 271.5 195.632812 271.488281 196.230469 271.476562 C 196.230469 271.375 196.230469 271.269531 196.230469 271.167969 C 195.628906 271.113281 195.027344 271.0625 194.429688 271.007812 " fill-opacity="1" fill-rule="nonzero"/><path fill="#263a29" d="M 137.964844 263.457031 C 138.824219 263.84375 139.683594 264.226562 140.542969 264.613281 C 140.605469 264.46875 140.664062 264.328125 140.726562 264.1875 C 139.867188 263.808594 139.003906 263.429688 138.140625 263.054688 C 138.082031 263.1875 138.023438 263.320312 137.964844 263.457031 " fill-opacity="1" fill-rule="nonzero"/><path fill="#263a29" d="M 172.175781 265.984375 C 172.191406 265.90625 172.203125 265.824219 172.214844 265.742188 C 171.152344 265.648438 170.089844 265.554688 169.027344 265.460938 C 169.027344 265.542969 169.023438 265.625 169.015625 265.707031 C 170.070312 265.800781 171.125 265.890625 172.175781 265.984375 " fill-opacity="1" fill-rule="nonzero"/><path fill="#263a29" d="M 100.484375 226.722656 C 100.46875 227.738281 101.007812 228.085938 101.65625 228.335938 C 101.601562 227.628906 101.503906 226.9375 100.484375 226.722656 " fill-opacity="1" fill-rule="nonzero"/><path fill="#263a29" d="M 101.65625 228.335938 C 101.660156 228.363281 101.660156 228.390625 101.664062 228.417969 C 101.6875 228.425781 101.714844 228.429688 101.742188 228.4375 C 101.738281 228.414062 101.730469 228.390625 101.730469 228.367188 C 101.703125 228.359375 101.683594 228.347656 101.65625 228.335938 " fill-opacity="1" fill-rule="nonzero"/><path fill="#263a29" d="M 124.121094 244.757812 C 123.433594 244.390625 122.90625 244.113281 122.035156 243.65625 C 122.75 244.945312 122.75 244.945312 124.121094 244.757812 " fill-opacity="1" fill-rule="nonzero"/><path fill="#263a29" d="M 211.308594 162.554688 C 211.3125 162.539062 211.316406 162.527344 211.316406 162.515625 C 211.300781 162.519531 211.285156 162.523438 211.265625 162.53125 C 211.265625 162.542969 211.265625 162.550781 211.261719 162.5625 C 211.277344 162.558594 211.292969 162.558594 211.308594 162.554688 " fill-opacity="1" fill-rule="nonzero"/><path fill="#263a29" d="M 212.804688 162.75 C 212.777344 162.613281 212.75 162.480469 212.71875 162.34375 C 212.25 162.414062 211.78125 162.484375 211.308594 162.554688 C 211.273438 162.75 211.234375 162.957031 211.15625 163.355469 C 211.859375 163.097656 212.332031 162.921875 212.804688 162.75 " fill-opacity="1" fill-rule="nonzero"/><path fill="#263a29" d="M 227.578125 249.105469 C 227.09375 249.394531 226.609375 249.683594 226.125 249.972656 C 226.25 250.144531 226.371094 250.316406 226.496094 250.488281 C 226.9375 250.144531 227.378906 249.800781 227.820312 249.460938 C 227.738281 249.339844 227.660156 249.222656 227.578125 249.105469 " fill-opacity="1" fill-rule="nonzero"/><path fill="#263a29" d="M 238.464844 238.878906 C 238.535156 238.960938 238.605469 239.042969 238.675781 239.125 C 238.84375 238.921875 239.015625 238.714844 239.1875 238.511719 C 239.109375 238.425781 239.03125 238.339844 238.957031 238.257812 C 238.792969 238.464844 238.628906 238.671875 238.464844 238.878906 " fill-opacity="1" fill-rule="nonzero"/><path fill="#ec633d" d="M 206.082031 219.191406 C 205.460938 219.117188 199.695312 218.214844 199.699219 216.617188 C 199.714844 216.613281 199.730469 216.617188 199.746094 216.613281 C 205.570312 214.847656 211.972656 216 216.960938 219.363281 C 214.679688 219.460938 212.402344 219.570312 210.109375 219.484375 C 208.761719 219.4375 207.421875 219.351562 206.082031 219.191406 Z M 200.207031 214.574219 C 199.71875 214.667969 192.234375 217.675781 201.679688 220.285156 C 207.339844 221.847656 213.816406 221.546875 219.605469 221.039062 C 220.429688 220.96875 220.558594 219.898438 220.003906 219.4375 C 214.285156 214.6875 207.78125 213.125 200.207031 214.574219 " fill-opacity="1" fill-rule="nonzero"/><path fill="#ec633d" d="M 109.082031 177.253906 C 102.175781 174.515625 96.621094 169.550781 92.957031 163.167969 C 99.484375 166.28125 108.96875 170.371094 109.082031 177.253906 Z M 110.863281 179.699219 C 112.355469 178.417969 110.609375 171.816406 107.832031 169.394531 C 103.246094 165.394531 96.503906 162.902344 91.179688 160.007812 C 90.320312 159.539062 89.203125 160.28125 89.660156 161.285156 C 93.597656 169.886719 98.683594 174.621094 107.421875 179.203125 C 108.0625 179.539062 110.351562 180.320312 110.863281 179.699219 " fill-opacity="1" fill-rule="nonzero"/><g clip-path="url(#a05d9bd6bf)"><path fill="#ec633d" d="M 90.847656 139.15625 C 91.363281 138.621094 91.949219 138.179688 92.601562 137.832031 C 92.839844 137.925781 92.988281 138.03125 93.15625 138.132812 C 91.070312 142.035156 88.445312 145.902344 84.78125 148.394531 C 85.652344 146.53125 86.585938 144.691406 87.722656 142.972656 C 88.625 141.613281 89.636719 140.257812 90.847656 139.15625 Z M 95.425781 136.445312 C 94.382812 135.265625 92.730469 135.503906 91.472656 136.152344 C 86.457031 138.734375 83.78125 145.625 81.613281 150.445312 C 81.246094 151.265625 82.1875 152.082031 82.96875 151.746094 C 87.824219 149.664062 94.34375 141.820312 94.691406 141.328125 C 95.652344 139.976562 96.765625 137.960938 95.425781 136.445312 " fill-opacity="1" fill-rule="nonzero"/></g><path fill="#263a29" d="M 239.1875 144.554688 C 239.1875 144.554688 253.667969 140.035156 259.371094 139.113281 C 265.074219 138.1875 262.917969 146.242188 256.128906 148.222656 C 249.34375 150.199219 239.1875 144.554688 239.1875 144.554688 " fill-opacity="1" fill-rule="nonzero"/><path fill="#263a29" d="M 238.925781 149.949219 C 238.925781 149.949219 247.980469 155.859375 251.050781 157.1875 C 254.121094 158.511719 248.261719 162.320312 243.632812 160.878906 C 239.003906 159.4375 238.925781 149.949219 238.925781 149.949219 " fill-opacity="1" fill-rule="nonzero"/><path fill="#90c03d" d="M 184.242188 248.292969 C 176.707031 248.007812 169.253906 246.625 162.109375 244.285156 C 162.257812 244.195312 162.363281 244.074219 162.394531 243.917969 C 163.089844 243.566406 163.65625 242.992188 163.867188 242.226562 C 164.347656 240.453125 162.925781 238.464844 162.078125 237.039062 C 160.789062 234.867188 159.253906 232.871094 157.554688 231.007812 C 157.207031 230.625 156.535156 230.925781 156.542969 231.425781 C 156.59375 234.417969 155.824219 239.9375 157.753906 242.722656 C 150.871094 240.042969 144.335938 236.472656 138.367188 232.117188 C 139.59375 231.152344 139.179688 229.132812 137.863281 227.8125 C 135.203125 225.152344 131.574219 223.398438 128 222.371094 C 127.570312 222.246094 127.121094 222.671875 127.257812 223.109375 C 128.410156 226.726562 132.015625 236.722656 137.414062 232.851562 C 141.011719 235.5 144.777344 237.835938 148.683594 239.859375 C 147.839844 239.785156 146.996094 239.789062 146.160156 239.890625 C 142.328125 239.679688 138.570312 240.878906 135.4375 243.539062 C 135.085938 243.839844 135.292969 244.429688 135.703125 244.542969 C 139.644531 245.652344 143.765625 246.777344 147.894531 246.203125 C 149.625 245.960938 152.777344 245.300781 152.929688 243.019531 C 152.960938 242.546875 152.851562 242.144531 152.660156 241.789062 C 158.460938 244.425781 164.535156 246.410156 170.800781 247.730469 C 169.6875 248.003906 168.476562 248.550781 167.304688 249.210938 C 164.472656 250.246094 161.925781 252.535156 160.296875 254.8125 C 160.003906 255.222656 160.402344 255.75 160.839844 255.761719 C 163.828125 255.863281 177.144531 255.296875 174.984375 249.417969 C 174.832031 249.003906 174.628906 248.675781 174.394531 248.40625 C 177.636719 248.953125 180.921875 249.328125 184.242188 249.523438 C 185.03125 249.570312 185.035156 248.324219 184.242188 248.292969 " fill-opacity="1" fill-rule="nonzero"/><path fill="#f7ba56" d="M 218.023438 188.472656 C 208.589844 184.679688 204.496094 189.300781 203.707031 192.582031 C 202.917969 195.863281 206.210938 196.632812 207.675781 195.648438 C 207.675781 195.648438 205.515625 194.101562 207.40625 193.128906 C 209.296875 192.152344 209.972656 194.914062 209.972656 194.914062 C 209.289062 196.421875 206.894531 201.699219 210.289062 203.585938 C 213.683594 205.476562 216.851562 197.46875 216.851562 197.46875 C 216.851562 197.46875 219.4375 197.140625 219.0625 198.972656 C 218.683594 200.808594 217.285156 200.195312 217.285156 200.195312 C 217.285156 200.195312 217.914062 203.789062 220.960938 202.605469 C 224.003906 201.421875 227.457031 192.265625 218.023438 188.472656 " fill-opacity="1" fill-rule="nonzero"/><path fill="#90c03d" d="M 238.011719 198.523438 C 237.515625 197.066406 235.011719 194.097656 232.496094 195.890625 C 232.480469 195.902344 232.476562 195.914062 232.460938 195.925781 C 232.109375 194.042969 231.625 192.222656 230.972656 190.527344 C 230.800781 190.074219 230.15625 190.328125 230.195312 190.765625 C 230.570312 194.878906 231.597656 198.855469 231.753906 203.011719 C 231.792969 204.03125 231.800781 205.050781 231.78125 206.066406 C 231.660156 205.960938 231.527344 205.863281 231.375 205.777344 C 227.359375 203.496094 224.332031 210.785156 223.585938 213.480469 C 223.441406 214.007812 223.894531 214.445312 224.414062 214.253906 C 226.011719 213.675781 229.6875 212.664062 231.425781 210.867188 C 231.257812 212.28125 231.042969 213.6875 230.730469 215.074219 C 229.3125 221.40625 226.324219 227.308594 221.933594 232.058594 C 219.984375 231.523438 217.769531 232.5625 216.285156 234.285156 C 214.816406 235.996094 213.503906 239.234375 213.710938 241.246094 C 213.726562 241.40625 213.875 241.546875 214.035156 241.570312 C 217.140625 241.992188 223.828125 237.632812 223.507812 234.058594 C 223.449219 233.390625 223.214844 232.941406 222.878906 232.640625 C 225.289062 230.070312 227.28125 227.171875 228.824219 224.03125 C 229.121094 225.882812 230.160156 227.4375 231.398438 228.824219 C 231.960938 229.558594 232.566406 230.265625 233.175781 230.929688 C 233.40625 231.183594 233.953125 231.136719 234.09375 230.792969 C 235.140625 228.210938 235.300781 225.5 234.546875 222.875 C 234.148438 221.5 233.035156 219.105469 231.121094 219.195312 C 230.992188 219.199219 230.882812 219.234375 230.769531 219.261719 C 231.105469 218.253906 231.414062 217.238281 231.671875 216.199219 C 232.832031 211.515625 233.402344 206.039062 233.058594 200.75 C 233.097656 200.769531 233.132812 200.804688 233.175781 200.816406 C 234.226562 202.136719 235.683594 203.082031 237.117188 203.941406 C 237.375 204.097656 237.8125 204.085938 237.972656 203.777344 C 238.867188 202.046875 238.628906 200.320312 238.011719 198.523438 " fill-opacity="1" fill-rule="nonzero"/><path fill="#ec633d" d="M 168.378906 192.292969 C 161.6875 190.429688 153.902344 193.195312 148.921875 197.746094 C 146.421875 200.03125 142.917969 203.625 142.40625 207.117188 C 142.15625 208.828125 143.019531 210.46875 144.417969 211.058594 C 146.210938 212.367188 148.8125 213.039062 150.640625 212.160156 C 151.875 211.566406 152.441406 210.488281 152.914062 209.273438 C 153.726562 207.183594 154.414062 205.257812 155.878906 203.480469 C 159.003906 199.695312 163.898438 197.746094 168.78125 198.289062 C 170.277344 198.453125 174.429688 200.191406 174.421875 197.339844 C 174.417969 194.71875 170.445312 192.867188 168.378906 192.292969 " fill-opacity="1" fill-rule="nonzero"/><path fill="#90c03d" d="M 143.398438 210.351562 C 143.777344 209.558594 147.488281 211.566406 147.667969 212.558594 C 147.84375 213.546875 145.53125 213.191406 145.53125 213.191406 C 145.53125 213.191406 144.039062 214.972656 143.9375 217.75 C 143.835938 220.527344 142.125 219.296875 142.363281 217.652344 C 142.601562 216.011719 143.058594 213.863281 144.144531 212.246094 C 144.144531 212.246094 142.960938 211.261719 143.398438 210.351562 " fill-opacity="1" fill-rule="nonzero"/><path fill="#f7ba56" d="M 209.003906 244.679688 C 210.511719 241.6875 209.492188 239.144531 209.492188 239.144531 C 209.492188 239.144531 212.089844 233.683594 203.867188 230.171875 C 203.867188 230.171875 199.453125 226.382812 193.046875 227.929688 C 193.046875 227.929688 189.042969 230.539062 188.15625 233.78125 C 188.15625 233.78125 183.117188 239.617188 182.613281 241 C 182.105469 242.386719 187.789062 235.847656 187.789062 235.847656 C 187.789062 235.847656 183.191406 241.289062 184.289062 240.820312 C 185.394531 240.355469 189.992188 234.917969 189.992188 234.917969 C 189.992188 234.917969 186.496094 239.890625 187.492188 239.351562 C 188.492188 238.816406 192.050781 234.632812 192.050781 234.632812 C 192.050781 234.632812 195.832031 236.53125 198.285156 235.464844 C 198.285156 235.464844 198.40625 237.371094 200.011719 238.480469 C 202.679688 239.292969 205.664062 238.796875 208.300781 239.1875 C 205.980469 240.625 202.863281 240.261719 200.503906 239.195312 C 200.390625 239.410156 200.253906 239.71875 200.117188 240.140625 C 200.296875 242.945312 201.070312 245.480469 202.492188 248.113281 C 200.15625 246.476562 198.503906 243.273438 199.679688 240.394531 C 199.542969 240.304688 199.355469 240.203125 199.109375 240.101562 C 197.246094 242.066406 195.25 243.945312 193.984375 246.328125 C 194.457031 243.167969 195.566406 240.863281 198.445312 239.4375 C 198.433594 238.730469 198.109375 237.34375 195.933594 236.605469 C 192.933594 235.585938 188.191406 238.140625 188.621094 242.15625 C 189.054688 246.171875 192.589844 247.753906 192.589844 247.753906 C 192.589844 247.753906 194.371094 250.855469 198.867188 250.726562 C 203.433594 250.597656 204.246094 248.203125 204.246094 248.203125 C 204.246094 248.203125 207.488281 247.703125 209.003906 244.679688 " fill-opacity="1" fill-rule="nonzero"/><path fill="#f7ba56" d="M 199.285156 237.824219 C 199.066406 237.011719 198.730469 236.257812 198.292969 235.542969 C 198.324219 235.824219 198.496094 236.898438 199.285156 237.824219 " fill-opacity="1" fill-rule="nonzero"/><path fill="#ec633d" d="M 203.570312 234.015625 C 202.140625 232.085938 199.800781 232.769531 198.242188 231.675781 C 199.925781 231.925781 201.640625 230.808594 203.199219 231.902344 C 201.019531 230.371094 198.148438 231.148438 195.84375 230.460938 C 198.183594 230.050781 200.351562 229.527344 202.585938 229.597656 C 200.308594 228.445312 197.824219 227.761719 195.253906 227.589844 C 194.550781 227.636719 193.8125 227.742188 193.046875 227.929688 C 193.046875 227.929688 189.042969 230.539062 188.15625 233.78125 C 188.15625 233.78125 183.117188 239.617188 182.613281 241 C 182.105469 242.386719 187.789062 235.847656 187.789062 235.847656 C 187.789062 235.847656 183.191406 241.289062 184.289062 240.820312 C 185.394531 240.355469 189.992188 234.917969 189.992188 234.917969 C 189.992188 234.917969 186.496094 239.890625 187.492188 239.351562 C 188.492188 238.816406 192.050781 234.632812 192.050781 234.632812 C 192.050781 234.632812 195.796875 236.515625 198.25 235.480469 C 197.734375 234.648438 197.082031 233.867188 196.308594 233.105469 C 198.738281 232.953125 201.265625 233.328125 203.570312 234.015625 " fill-opacity="1" fill-rule="nonzero"/><path fill="#ec633d" d="M 162.414062 208.773438 C 160.695312 210.480469 157.847656 214.988281 157.964844 217.914062 C 157.757812 218.730469 157.761719 219.511719 158.519531 220.246094 C 159.683594 221.367188 162.109375 221.648438 163.390625 220.589844 C 165.425781 218.90625 164.980469 215.171875 166.164062 212.976562 C 168.191406 209.222656 171.980469 207.167969 175.527344 205.015625 C 176.691406 204.304688 176.894531 203.128906 175.058594 203.136719 C 172.667969 203.144531 166.714844 204.511719 162.414062 208.773438 " fill-opacity="1" fill-rule="nonzero"/><path fill="#90c03d" d="M 158.519531 220.246094 C 158.332031 220.835938 158.539062 221.503906 159.363281 221.65625 C 159.363281 221.65625 159.363281 225.457031 160.03125 225.765625 C 160.699219 226.074219 159.621094 223.402344 160.390625 221.914062 C 160.390625 221.914062 162.484375 221.824219 162.746094 220.96875 C 163.011719 220.117188 158.519531 220.246094 158.519531 220.246094 " fill-opacity="1" fill-rule="nonzero"/><path fill="#90c03d" d="M 114.808594 149.339844 C 114.542969 152.941406 111.988281 155.734375 109.230469 157.785156 C 108.167969 158.570312 106.453125 159.988281 105.117188 160.082031 C 104.902344 159.984375 104.730469 159.878906 104.539062 159.78125 C 109.597656 158.980469 115.742188 152.375 113.214844 147.273438 C 112.992188 146.824219 112.753906 146.453125 112.507812 146.148438 C 112.386719 145.621094 112.21875 145.105469 111.964844 144.617188 C 113.761719 145.136719 114.960938 147.253906 114.808594 149.339844 Z M 102.179688 156.039062 C 102.226562 155.894531 102.277344 155.75 102.324219 155.605469 C 102.410156 155.414062 102.5 155.21875 102.625 155.015625 C 102.828125 154.605469 103.039062 154.203125 103.265625 153.800781 C 103.683594 153.039062 104.269531 151.90625 104.972656 150.757812 C 104.914062 150.894531 104.84375 151.023438 104.789062 151.164062 C 104.078125 152.84375 102.527344 156.34375 102.867188 158.578125 C 102.144531 157.8125 101.917969 156.964844 102.179688 156.039062 Z M 106.296875 155.769531 C 107.136719 152.34375 108.75 149.339844 111.160156 146.734375 C 111.21875 146.761719 111.289062 146.78125 111.34375 146.8125 C 111.828125 150.132812 109.382812 154.332031 106.296875 155.769531 Z M 104.585938 156.433594 C 104.484375 155.332031 105.28125 153.554688 105.652344 152.527344 C 106.417969 150.402344 107.546875 148.535156 109.15625 147.117188 C 106.949219 149.878906 105.480469 153.03125 104.804688 156.597656 C 104.714844 157.074219 105.089844 157.5 105.589844 157.378906 C 108.792969 156.605469 111.507812 153.398438 112.382812 149.988281 C 112.246094 151.277344 111.773438 152.582031 111.375 153.242188 C 110.445312 154.792969 109.058594 156.011719 107.546875 156.976562 C 107.007812 157.316406 106.449219 157.625 105.875 157.898438 C 104.445312 157.992188 104.015625 157.503906 104.585938 156.433594 Z M 114.242188 143.804688 C 112.070312 141.941406 108.859375 143.539062 107.0625 145.144531 C 103.867188 148.003906 101.980469 152.460938 100.734375 156.46875 C 100.691406 156.59375 100.703125 156.703125 100.734375 156.804688 C 100.507812 158.234375 100.746094 159.683594 101.992188 160.675781 C 104.375 162.574219 107.484375 160.582031 109.496094 159.148438 C 111.996094 157.367188 114.335938 155.148438 115.429688 152.210938 C 116.386719 149.660156 116.535156 145.777344 114.242188 143.804688 " fill-opacity="1" fill-rule="nonzero"/><path fill="#90c03d" d="M 133.46875 205.769531 C 133.265625 206.28125 133.058594 206.792969 132.851562 207.304688 C 131.757812 209.710938 130.207031 211.984375 128.359375 213.871094 C 127.488281 214.761719 125.828125 216.746094 124.492188 216.589844 C 123.578125 216.484375 123.226562 215.996094 123.128906 215.386719 C 123.609375 215.90625 124.316406 216.140625 125.308594 215.800781 C 127.929688 214.898438 130.132812 210.085938 131.125 207.820312 C 131.707031 206.496094 133.058594 201.867188 129.765625 202.984375 C 128.96875 203.253906 128.230469 203.789062 127.550781 204.476562 C 127.625 204.402344 127.683594 204.3125 127.761719 204.238281 C 128.554688 203.453125 129.925781 202.082031 131.070312 201.910156 C 133.414062 202.851562 134.210938 204.140625 133.46875 205.769531 Z M 124.367188 212.894531 C 125.082031 210.765625 126.441406 207.351562 128.332031 205.910156 L 128.964844 205.222656 C 130.589844 205.070312 131.03125 205.527344 130.292969 206.589844 C 130.1875 207.464844 129.136719 209.105469 128.648438 209.941406 C 128.089844 210.890625 127.378906 212.300781 126.523438 213.019531 C 125.925781 214.15625 124.996094 214.246094 123.742188 213.316406 C 124 213.324219 124.261719 213.203125 124.367188 212.894531 Z M 134.347656 201.464844 C 132.332031 199.339844 129.277344 201.199219 127.578125 202.699219 C 124.914062 205.054688 122.773438 208.609375 122.347656 212.179688 C 122.332031 212.328125 122.320312 212.484375 122.316406 212.640625 C 122.082031 213.460938 121.929688 214.285156 121.902344 215.101562 C 121.816406 217.613281 123.613281 218.390625 125.835938 217.382812 C 129.164062 215.878906 131.84375 211.980469 133.460938 208.839844 C 134.488281 206.851562 136.226562 203.445312 134.347656 201.464844 " fill-opacity="1" fill-rule="nonzero"/><path fill="#90c03d" d="M 172.785156 230.609375 C 172.695312 230.332031 172.476562 230.203125 172.25 230.1875 C 172.800781 228.820312 173.25 228.570312 173.605469 229.445312 C 175.066406 230.398438 175.605469 233.613281 175.585938 235.523438 C 174.101562 234.773438 173.160156 231.773438 172.785156 230.609375 Z M 175.851562 238.90625 C 174.707031 238.433594 173.410156 235.617188 172.789062 234.574219 C 172.414062 233.945312 171.71875 233.105469 171.566406 232.371094 C 170.972656 231.714844 170.980469 231.140625 171.574219 230.644531 C 171.558594 230.730469 171.5625 230.828125 171.597656 230.933594 C 172.359375 233.15625 173.429688 236.675781 176.152344 236.910156 C 176.507812 236.941406 176.722656 236.605469 176.761719 236.304688 C 177.121094 233.464844 175.707031 228.007812 172.738281 226.664062 C 170.445312 225.621094 169 228.074219 169.320312 230.070312 C 169.632812 232.023438 170.964844 233.964844 171.984375 235.625 C 172.304688 236.15625 172.6875 236.832031 173.113281 237.511719 C 171.007812 235.804688 169.367188 233.128906 168.914062 230.902344 C 168.660156 229.648438 168.699219 228.175781 169.578125 227.164062 C 169.894531 226.125 170.636719 225.832031 171.804688 226.292969 C 172.855469 225.867188 173.644531 226.082031 174.175781 226.933594 C 175.644531 228.09375 176.75 230.605469 177.375 232.3125 C 177.59375 232.90625 177.78125 233.515625 177.949219 234.128906 C 178.214844 235.105469 179.617188 240.46875 175.851562 238.90625 Z M 168.714844 226.011719 C 165.082031 230.664062 170.15625 238.234375 175.242188 240.082031 C 175.433594 240.222656 175.625 240.347656 175.824219 240.441406 C 178.15625 241.558594 179.75 239.34375 179.746094 237.1875 C 179.738281 233.273438 174.0625 219.167969 168.714844 226.011719 " fill-opacity="1" fill-rule="nonzero"/><path fill="#90c03d" d="M 226.261719 184.566406 C 226.128906 184.601562 226.039062 184.667969 225.96875 184.75 C 225.378906 184.027344 226.703125 183.351562 227.3125 182.941406 C 228.574219 182.082031 229.984375 181.578125 231.460938 181.335938 C 230.136719 182.96875 228.394531 184.042969 226.261719 184.566406 Z M 225.472656 187.113281 C 224.96875 187.179688 224.460938 187.246094 223.953125 187.316406 C 222.5625 186.117188 222.351562 185.054688 223.320312 184.128906 C 223.867188 183.238281 224.84375 182.46875 225.664062 181.886719 C 227.113281 180.863281 228.808594 180.011719 230.546875 179.625 C 231.425781 179.433594 232.976562 179.207031 233.835938 179.585938 C 234.089844 179.699219 234.273438 179.804688 234.417969 179.910156 C 234.332031 180.003906 234.261719 180.121094 234.25 180.28125 C 234.21875 180.648438 234.128906 180.996094 234.007812 181.339844 C 233.890625 181.4375 233.769531 181.539062 233.652344 181.648438 C 232.460938 182.773438 231.210938 183.8125 229.707031 184.488281 C 229.550781 184.558594 229.335938 184.65625 229.085938 184.757812 C 230.765625 183.867188 232.136719 182.585938 233.261719 180.886719 C 233.5 180.519531 233.1875 179.949219 232.738281 179.984375 C 229.945312 180.191406 226.011719 181.335938 224.398438 183.917969 C 222.988281 186.183594 225.699219 186.53125 227.484375 186.363281 C 227.761719 186.335938 228.050781 186.273438 228.335938 186.210938 C 227.3125 186.640625 226.3125 186.949219 225.472656 187.113281 Z M 233.265625 178.265625 C 230.039062 177.867188 226.660156 179.460938 224.203125 181.441406 C 222.726562 182.632812 219.789062 185.695312 221.507812 187.78125 C 223.140625 189.765625 227.4375 188.003906 229.179688 187.167969 C 231.386719 186.105469 233.875 184.503906 234.953125 182.230469 C 235.238281 181.925781 235.5 181.613281 235.730469 181.304688 C 237.136719 179.414062 235.117188 178.492188 233.265625 178.265625 " fill-opacity="1" fill-rule="nonzero"/></svg>